<svg width="256" height="256" viewBox="0 0 256 256" fill="none" xmlns="http://www.w3.org/2000/svg">
<rect width="256" height="256" fill="white"/>
<path fill-rule="evenodd" clip-rule="evenodd" d="M131.643 25.136C150.447 24.1046 169.339 28.9737 185.515 38.6164C201.578 48.1914 214.312 62.6452 222.647 79.3845C230.713 95.5833 232.219 113.831 231.976 131.925C231.736 149.84 229.732 167.878 221.25 183.659C212.632 199.693 199.642 213.314 183.603 221.921C167.802 230.4 149.575 231.871 131.643 231.744C113.804 231.618 95.6769 229.896 80.1067 221.189C64.4351 212.425 53.3691 197.835 43.8171 182.631C33.9977 167.002 24.5447 150.376 24.0267 131.925C23.503 113.27 30.7364 95.1858 40.9231 79.5482C50.8075 64.3746 65.5486 53.6594 81.0785 44.3449C96.8087 34.9102 113.328 26.1406 131.643 25.136Z" fill="#FAFA37"/>
<path d="M191.66 28.3089C173.516 17.4928 152.266 11.9867 130.986 13.154C109.435 14.3361 90.6607 24.6047 74.9062 34.054C58.9544 43.6216 42.2796 55.4808 30.8684 72.9983C19.8999 89.8359 11.4155 110.323 12.0314 132.262C12.6518 154.36 23.9249 173.526 33.6561 189.015C43.4298 204.572 55.8221 221.357 74.2498 231.662C92.5967 241.922 113.311 243.615 131.558 243.744C149.903 243.874 170.694 242.466 189.277 232.495C207.573 222.676 222.186 207.262 231.82 189.341C241.698 170.962 243.728 150.552 243.975 132.086C244.225 113.45 242.758 92.8516 233.389 74.0358C224.128 55.4375 209.882 39.1716 191.66 28.3089Z" stroke="#FAFA37" stroke-opacity="0.4" stroke-width="24"/>
</svg>
