<svg width="16" height="16" viewBox="0 0 16 16" fill="none" xmlns="http://www.w3.org/2000/svg">
<circle cx="8" cy="8" r="8" fill="black"/>
<path fill-rule="evenodd" clip-rule="evenodd" d="M3.83325 7.99998C3.83325 5.69873 5.69867 3.83331 7.99992 3.83331V4.66665H11.3333V7.99998H12.1666C12.1666 10.3012 10.3012 12.1667 7.99992 12.1667C5.69867 12.1667 3.83325 10.3012 3.83325 7.99998ZM10.4999 7.99998H9.66659V6.33332H7.99992V5.49998C7.50547 5.49998 7.02212 5.6466 6.611 5.92131C6.19987 6.19601 5.87944 6.58646 5.69022 7.04327C5.501 7.50009 5.45149 8.00276 5.54796 8.48771C5.64442 8.97266 5.88252 9.41812 6.23215 9.76775C6.58179 10.1174 7.02724 10.3555 7.5122 10.4519C7.99715 10.5484 8.49982 10.4989 8.95663 10.3097C9.41345 10.1205 9.80389 9.80003 10.0786 9.38891C10.3533 8.97779 10.4999 8.49444 10.4999 7.99998V7.99998Z" fill="white"/>
</svg>
