<?xml version="1.0" standalone="no"?>
<!DOCTYPE svg PUBLIC "-//W3C//DTD SVG 20010904//EN"
 "http://www.w3.org/TR/2001/REC-SVG-20010904/DTD/svg10.dtd">
<svg version="1.0" xmlns="http://www.w3.org/2000/svg"
 width="700.000000pt" height="700.000000pt" viewBox="0 0 700.000000 700.000000"
 preserveAspectRatio="xMidYMid meet">
<metadata>
Created by potrace 1.14, written by Peter Selinger 2001-2017
</metadata>
<g transform="translate(0.000000,700.000000) scale(0.100000,-0.100000)"
fill="#000000" stroke="none">
<path d="M3457 6564 c-1 -1 -58 -4 -127 -8 -69 -3 -161 -11 -205 -17 -44 -6
-89 -12 -100 -14 -17 -2 -75 -13 -165 -30 -28 -5 -60 -13 -90 -20 -11 -3 -28
-7 -37 -9 -10 -2 -71 -20 -135 -40 -1014 -310 -1808 -1145 -2068 -2176 -31
-124 -32 -128 -54 -270 -14 -89 -23 -163 -32 -270 -5 -63 -5 -376 1 -430 2
-25 7 -72 10 -105 9 -91 29 -228 40 -265 2 -8 7 -31 10 -50 8 -45 63 -259 74
-285 5 -11 23 -62 41 -114 34 -101 43 -124 127 -301 178 -375 478 -755 813
-1028 36 -29 74 -60 84 -69 44 -36 238 -164 326 -215 285 -166 622 -292 940
-353 88 -16 95 -17 220 -34 237 -32 506 -31 775 5 99 13 132 18 240 39 77 15
296 79 412 120 160 58 412 181 563 276 633 398 1097 1005 1311 1713 22 74 42
142 44 153 41 189 46 218 64 358 34 260 29 600 -13 850 -79 466 -233 857 -487
1237 -32 48 -65 95 -73 105 -8 10 -44 55 -80 101 -369 463 -885 817 -1459
1001 -90 29 -262 73 -332 86 -16 2 -41 7 -55 10 -82 16 -241 35 -347 41 -121
6 -233 10 -236 8z m43 -3064 l0 -2452 -127 6 c-70 4 -136 9 -147 11 -12 2 -39
6 -61 9 -77 10 -121 18 -204 38 -46 11 -89 21 -95 22 -19 3 -190 57 -211 66
-11 5 -60 25 -110 46 -693 288 -1226 906 -1415 1641 -62 238 -80 392 -75 648
4 227 9 267 59 522 28 141 130 414 213 573 53 101 193 324 217 345 6 6 31 37
56 70 50 68 249 270 328 335 390 317 860 514 1327 557 33 3 61 6 62 7 1 0 42
2 92 4 l91 3 0 -2451z"/>
</g>
</svg>
