<?xml version="1.0" encoding="UTF-8" standalone="no"?>
<svg viewBox="0 0 77 29" version="1.1" xmlns="http://www.w3.org/2000/svg" xmlns:xlink="http://www.w3.org/1999/xlink" xmlns:sketch="http://www.bohemiancoding.com/sketch/ns">
  <g id="flag" stroke="none" stroke-width="1" sketch:type="MSPage">
    <path d="M74.7357986,23.118201 C74.5296501,23.2519724 74.3035909,23.3971212 74.0576172,23.5536499 C73.73535,23.7587291 73.3911151,23.9515982 73.0249023,24.1322632 C72.6586896,24.3129281 72.277834,24.4642938 71.8823242,24.5863647 C71.4868144,24.7084357 71.0839864,24.7694702 70.6738281,24.7694702 C69.9414026,24.7694702 69.3505882,24.6205459 68.9013672,24.3226929 C68.4521462,24.0248398 68.0957044,23.6342187 67.8320312,23.1508179 C67.5683581,22.667417 67.3730475,22.1254302 67.2460938,21.5248413 C67.11914,20.9242524 67.016602,20.3163483 66.9384766,19.7011108 L66.7041016,19.7011108 L64.0820312,27.0106812 C63.9453118,27.3915424 63.8159186,27.7064807 63.6938477,27.9555054 C63.5717767,28.2045301 63.4472663,28.4071647 63.3203125,28.5634155 C63.1933587,28.7196663 63.0566414,28.8295285 62.9101562,28.8930054 C62.7636711,28.9564823 62.6025399,28.9882202 62.4267578,28.9882202 C62.0263652,28.9882202 61.7041028,28.9027719 61.4599609,28.7318726 C61.2158191,28.5609733 61.0278327,28.3314834 60.8959961,28.043396 C60.7641595,27.7553086 60.6762698,27.4281635 60.6323242,27.0619507 C60.6068784,26.8499024 60.5887997,26.6337633 60.5780879,26.413531 C60.4723142,26.4917688 60.3658812,26.5687485 60.2587891,26.6444702 C59.8388651,26.9374404 59.3872094,27.2255235 58.9038086,27.508728 C58.4204077,27.7919326 57.9126003,28.0433949 57.3803711,28.2631226 C56.8481419,28.4828502 56.2963896,28.6586297 55.7250977,28.7904663 C55.1538057,28.9223029 54.5751982,28.9882202 53.9892578,28.9882202 C53.0712845,28.9882202 52.2680698,28.8222063 51.5795898,28.4901733 C50.8911098,28.1581404 50.3173851,27.7113676 49.8583984,27.1498413 C49.4443649,26.6433109 49.1237063,26.0652704 48.8964152,25.4157055 L48.8964152,25.4157055 C48.3649768,25.7763216 47.8189441,26.0906919 47.2583008,26.3588257 C46.6967745,26.6273817 46.1108429,26.859313 45.5004883,27.0546265 C44.8901337,27.2499399 44.2431675,27.4257194 43.5595703,27.5819702 C43.3935539,27.7479867 43.1665053,27.9140006 42.878418,28.0800171 C42.5903306,28.2460335 42.3046889,28.3973992 42.0214844,28.5341187 C41.6992171,28.6903694 41.0302734,28.8763866 40.6035767,28.9111938 C40.1768799,28.946001 38.9624064,28.8734753 38.1469727,28.6439819 C37.3315389,28.4144886 36.5918002,28.1581435 35.9277344,27.874939 C35.4889397,27.691645 35.0612056,27.4925572 34.6445278,27.2776736 C34.3303894,27.5260288 34.003732,27.7568543 33.6645508,27.9701538 C33.1909156,28.2680069 32.6709013,28.512145 32.1044922,28.7025757 C31.5380831,28.8930063 30.8984411,28.9882202 30.1855469,28.9882202 C29.8339826,28.9882202 29.5385754,28.8734753 29.2993164,28.6439819 C29.0600574,28.4144886 28.8671882,28.0946676 28.7207031,27.6845093 C28.574218,27.274351 28.4692386,26.7909574 28.4057617,26.234314 C28.3422848,25.6776706 28.3105469,25.0722079 28.3105469,24.4179077 C28.3105469,23.8026703 28.3325193,23.1508213 28.3764648,22.4623413 C28.4204104,21.7738613 28.4814449,21.0780675 28.5595703,20.374939 L28.3398438,20.374939 L25.3662109,27.9481812 C25.1123034,28.3583395 24.8291031,28.6342156 24.5166016,28.7758179 C24.2041,28.9174201 23.8427755,28.9882202 23.4326172,28.9882202 C23.1201156,28.9882202 22.8710947,28.9027719 22.6855469,28.7318726 C22.4999991,28.5609733 22.3559575,28.3412489 22.253418,28.0726929 C22.1508784,27.8041368 22.0825197,27.5087296 22.0483398,27.1864624 C22.01416,26.8641952 21.9970703,26.5516983 21.9970703,26.2489624 C21.9970703,26.1220086 22.0068358,25.9413464 22.0263672,25.7069702 C22.0458985,25.472594 22.0751951,25.204042 22.1142578,24.9013062 C22.1533205,24.5985703 22.1972654,24.2787492 22.2460938,23.9418335 C22.2949221,23.6049177 22.3437498,23.2704484 22.3925781,22.9384155 C22.5000005,22.1571616 22.6318352,21.3173263 22.7880859,20.4188843 L22.5683594,20.4188843 C22.4511713,20.5653694 22.3168953,20.7850938 22.1655273,21.078064 C22.0141594,21.3710342 21.8017592,21.8007174 21.5283203,22.3671265 C21.2548814,22.9335355 20.9057638,23.6683915 20.480957,24.5717163 C20.0561502,25.4750411 19.5068393,26.6054009 18.8330078,27.9628296 C18.6376943,28.3632222 18.4106458,28.6342156 18.1518555,28.7758179 C17.8930651,28.9174201 17.6074234,28.9882202 17.2949219,28.9882202 C16.8945292,28.9882202 16.5722668,28.9027719 16.328125,28.7318726 C16.0839832,28.5609733 15.8959968,28.3314834 15.7641602,28.043396 C15.6323236,27.7553086 15.5444338,27.4281635 15.5004883,27.0619507 C15.48747,26.9534647 15.4763799,26.843908 15.4672182,26.7332803 L15.4672182,26.7332803 C15.0840239,26.995708 14.6751954,27.2541885 14.2407227,27.508728 C13.7573218,27.7919326 13.2495144,28.0433949 12.7172852,28.2631226 C12.1850559,28.4828502 11.6333036,28.6586297 11.0620117,28.7904663 C10.4907198,28.9223029 9.9121123,28.9882202 9.32617188,28.9882202 C8.40819854,28.9882202 7.60498391,28.8222063 6.91650391,28.4901733 C6.2280239,28.1581404 5.65429917,27.7113676 5.1953125,27.1498413 C4.73632583,26.5883151 4.39209099,25.9389075 4.16259766,25.2015991 C4.08036392,24.9374014 4.01286369,24.668503 3.96009684,24.3949029 C2.51099171,24.2624035 0.357878807,23.8467899 0.0877075215,23.3278808 C-0.241577185,22.6954346 0.550903406,21.0491333 1.17498785,21.1563721 C1.7990723,21.2636108 1.91369626,21.5669556 2.29370114,21.7345581 C2.54017381,21.8432658 3.1018537,21.8694229 3.87491967,21.8743827 L3.87491967,21.8743827 C3.90085662,21.6361876 3.93571409,21.3927211 3.97949219,21.1439819 C4.0869146,20.5336273 4.25048718,19.9354888 4.47021484,19.3495483 C4.6899425,18.7636079 4.96581865,18.2045315 5.29785156,17.6723022 C5.62988447,17.140073 6.01806418,16.6713277 6.46240234,16.2660522 C6.9067405,15.8607768 7.4047824,15.5385144 7.95654297,15.2992554 C8.50830354,15.0599964 9.12109038,14.9403687 9.79492188,14.9403687 C10.3417996,14.9403687 10.849607,15.0282584 11.3183594,15.2040405 C11.7871117,15.3798227 12.1948225,15.6264022 12.5415039,15.9437866 C12.8881853,16.261171 13.1591787,16.644468 13.3544922,17.093689 C13.5498057,17.54291 13.6474609,18.0458346 13.6474609,18.602478 C13.6474609,19.2079498 13.4985366,19.8134125 13.2006836,20.4188843 C12.9028305,21.0243561 12.490237,21.5956394 11.9628906,22.1327515 C11.4355442,22.6698635 10.8081091,23.1483744 10.0805664,23.5682983 C9.35302371,23.9882223 8.56445737,24.3153675 7.71484375,24.5497437 C7.86132886,24.8134168 8.00537039,25.0331412 8.14697266,25.2089233 C8.28857493,25.3847055 8.43261646,25.5214229 8.57910156,25.6190796 C8.72558667,25.7167363 8.87939373,25.785095 9.04052734,25.8241577 C9.20166096,25.8632204 9.37499907,25.8827515 9.56054688,25.8827515 C10.1464873,25.8827515 10.7641569,25.7655651 11.4135742,25.531189 C12.0629915,25.2968128 12.6953094,25.003847 13.3105469,24.6522827 C13.9257843,24.3007185 14.5068332,23.9174215 15.0537109,23.5023804 C15.2716299,23.3369954 15.4763674,23.1751003 15.6679241,23.0166944 C15.6777723,22.9374062 15.6878784,22.8576023 15.6982422,22.7772827 C15.7763676,22.1718109 15.8666987,21.5541413 15.9692383,20.9242554 C16.0717779,20.2943694 16.1791987,19.6913481 16.2915039,19.1151733 C16.4038092,18.5389986 16.5185541,18.0116601 16.6357422,17.5331421 C16.7529303,17.0546241 16.8603511,16.664003 16.9580078,16.3612671 C17.0556646,16.0487655 17.1484371,15.7997446 17.2363281,15.6141968 C17.3242192,15.428649 17.4243158,15.2846074 17.5366211,15.1820679 C17.6489263,15.0795283 17.7832023,15.0111696 17.9394531,14.9769897 C18.0957039,14.9428099 18.2958972,14.9257202 18.5400391,14.9257202 C18.9111347,14.9257202 19.2016591,14.9379271 19.4116211,14.9623413 C19.6215831,14.9867555 19.7778315,15.0453487 19.8803711,15.1381226 C19.9829107,15.2308965 20.0439452,15.3651725 20.0634766,15.5409546 C20.0830079,15.7167367 20.0927734,15.9559921 20.0927734,16.258728 C20.0927734,16.4247445 20.0854493,16.6151723 20.0708008,16.8300171 C20.0561523,17.0448619 20.0341798,17.2743518 20.0048828,17.5184937 C19.9755858,17.7626355 19.9438478,18.0140978 19.909668,18.2728882 C19.8754881,18.5316785 19.8388674,18.7831409 19.7998047,19.0272827 C19.7119136,19.6034575 19.6191411,20.1991546 19.5214844,20.8143921 L19.6826172,20.9901733 C19.7021485,20.9608763 19.807128,20.7753313 19.9975586,20.4335327 C20.1879892,20.0917341 20.4223619,19.681582 20.7006836,19.203064 C20.9790053,18.7245459 21.2792953,18.2240627 21.6015625,17.7015991 C21.9238297,17.1791356 22.2314438,16.7177144 22.5244141,16.3173218 C22.8076186,15.9169292 23.1079086,15.5849012 23.425293,15.321228 C23.7426774,15.0575548 24.1210916,14.9257202 24.5605469,14.9257202 C24.9707052,14.9257202 25.3222642,15.0453479 25.6152344,15.2846069 C25.9082046,15.5238659 26.0546875,15.863218 26.0546875,16.3026733 C26.0546875,16.6835346 26.0302737,17.0448591 25.9814453,17.3866577 C25.9326169,17.7284563 25.8715824,18.0604842 25.7983398,18.3827515 C25.7250973,18.7050187 25.6494145,19.019957 25.5712891,19.3275757 C25.4931637,19.6351944 25.4199222,19.9501327 25.3515625,20.2723999 C25.3027341,20.4970104 25.2734375,20.6386105 25.2636719,20.6972046 C25.2539062,20.7557986 25.2490234,20.7948607 25.2490234,20.8143921 L25.4101562,20.9901733 C25.4296876,20.9608763 25.5419912,20.7777727 25.7470703,20.4408569 C25.9521495,20.1039412 26.2036118,19.6962304 26.5014648,19.2177124 C26.7993179,18.7391944 27.1166975,18.2362697 27.4536133,17.7089233 C27.790529,17.181577 28.1054673,16.7177144 28.3984375,16.3173218 C28.681642,15.9266948 28.9648423,15.5971083 29.2480469,15.3285522 C29.5312514,15.0599962 29.8779276,14.9257202 30.2880859,14.9257202 C30.7470726,14.9257202 31.1352523,15.0453479 31.4526367,15.2846069 C31.7700211,15.5238659 31.9287109,15.863218 31.9287109,16.3026733 C31.9287109,16.9765048 31.8945316,17.6161469 31.8261719,18.2216187 C31.7578122,18.8270904 31.6796879,19.4227876 31.5917969,20.008728 C31.5039058,20.5946685 31.4257816,21.1879242 31.3574219,21.7885132 C31.2890622,22.3891021 31.2548828,23.0263028 31.2548828,23.7001343 C31.2548828,24.2274807 31.3232415,24.6571639 31.4599609,24.9891968 C31.5966804,25.3212297 31.7626943,25.4872437 31.9580078,25.4872437 C32.163087,25.4872437 32.3779286,25.4432988 32.6025391,25.3554077 C32.8271496,25.2675167 33.0566395,25.1552131 33.2910156,25.0184937 C33.4784041,24.9091837 33.6626691,24.7858296 33.8438142,24.6484288 L33.8438142,24.6484288 C33.8586435,24.4631334 33.8745726,24.2739884 33.8916016,24.0809937 C33.969727,23.2216144 34.0771478,22.2084409 34.2138672,21.0414429 C34.3505866,19.8744448 34.5361316,18.5731883 34.7705078,17.1376343 C34.9267586,16.1805982 35.1220691,15.1137144 35.3564453,13.9369507 C35.5908215,12.760187 35.8666976,11.5687927 36.184082,10.3627319 C36.5014664,9.15667122 36.8579082,7.98480793 37.253418,6.84710693 C37.6489278,5.70940593 38.0883765,4.69623247 38.5717773,3.80755615 C39.0551782,2.91887983 39.5825167,2.20599634 40.1538086,1.66888428 C40.7251005,1.13177222 41.3427701,0.863220215 42.0068359,0.863220215 C42.7490271,0.863220215 43.3447243,0.99017207 43.7939453,1.24407959 C44.2431663,1.49798711 44.5898425,1.84222195 44.8339844,2.27679443 C45.0781262,2.71136692 45.2392574,3.22161572 45.3173828,3.80755615 C45.3955082,4.39349658 45.4345703,5.01849033 45.4345703,5.68255615 C45.4345703,6.61029517 45.2612322,7.56731685 44.9145508,8.5536499 C44.5678694,9.53998296 44.1162137,10.5238598 43.5595703,11.5053101 C43.0029269,12.4867603 42.3803745,13.4462233 41.6918945,14.383728 C41.0034145,15.3212327 40.3173862,16.2050129 39.6337891,17.0350952 L39.8681641,17.196228 C40.4150418,16.5126309 40.9155251,15.9633199 41.3696289,15.5482788 C41.8237327,15.1332377 42.2753884,14.9257202 42.7246094,14.9257202 C43.3007841,14.9257202 43.8134743,15.0526721 44.2626953,15.3065796 C44.7119163,15.5604871 45.0927719,15.8973978 45.4052734,16.3173218 C45.717775,16.7372458 45.9570304,17.2206394 46.1230469,17.7675171 C46.2890633,18.3143948 46.3720703,18.8856782 46.3720703,19.4813843 C46.3720703,19.9794336 46.3525393,20.4506203 46.3134766,20.8949585 C46.2744139,21.3392967 46.2036138,21.7738626 46.1010742,22.1986694 C45.9985346,22.6234762 45.8569345,23.0458353 45.6762695,23.4657593 C45.4956046,23.8856833 45.2587905,24.3202492 44.9658203,24.7694702 C45.3173846,24.5643911 45.6738263,24.3641978 46.0351562,24.1688843 C46.3964862,23.9735708 46.7602521,23.7587292 47.1264648,23.524353 C47.4926776,23.2899769 47.8613263,23.028749 48.2324219,22.7406616 C48.3172349,22.6748199 48.4025578,22.6063005 48.4883905,22.5351031 C48.5060623,22.0913236 48.5574579,21.6276194 48.6425781,21.1439819 C48.7500005,20.5336273 48.9135731,19.9354888 49.1333008,19.3495483 C49.3530284,18.7636079 49.6289046,18.2045315 49.9609375,17.6723022 C50.2929704,17.140073 50.6811501,16.6713277 51.1254883,16.2660522 C51.5698264,15.8607768 52.0678683,15.5385144 52.6196289,15.2992554 C53.1713895,15.0599964 53.7841763,14.9403687 54.4580078,14.9403687 C55.0048855,14.9403687 55.512693,15.0282584 55.9814453,15.2040405 C56.4501977,15.3798227 56.8579084,15.6264022 57.2045898,15.9437866 C57.5512713,16.261171 57.8222646,16.644468 58.0175781,17.093689 C58.2128916,17.54291 58.3105469,18.0458346 58.3105469,18.602478 C58.3105469,19.2079498 58.1616226,19.8134125 57.8637695,20.4188843 C57.5659165,21.0243561 57.1533229,21.5956394 56.6259766,22.1327515 C56.0986302,22.6698635 55.471195,23.1483744 54.7436523,23.5682983 C54.0161096,23.9882223 53.2275433,24.3153675 52.3779297,24.5497437 C52.5244148,24.8134168 52.6684563,25.0331412 52.8100586,25.2089233 C52.9516609,25.3847055 53.0957024,25.5214229 53.2421875,25.6190796 C53.3886726,25.7167363 53.5424797,25.785095 53.7036133,25.8241577 C53.8647469,25.8632204 54.038085,25.8827515 54.2236328,25.8827515 C54.8095732,25.8827515 55.4272428,25.7655651 56.0766602,25.531189 C56.7260775,25.2968128 57.3583954,25.003847 57.9736328,24.6522827 C58.5888703,24.3007185 59.1699191,23.9174215 59.7167969,23.5023804 C60.1425237,23.1792841 60.5179424,22.8695071 60.8430593,22.573044 L60.8430593,22.573044 C60.9248372,21.9520981 61.0206069,21.3195001 61.1303711,20.6752319 C61.2426763,20.016049 61.3623041,19.3886138 61.4892578,18.7929077 C61.6162116,18.1972016 61.7431634,17.6503321 61.8701172,17.1522827 C61.9970709,16.6542333 62.1240228,16.2440812 62.2509766,15.921814 C62.329102,15.7069691 62.4072262,15.5360724 62.4853516,15.4091187 C62.563477,15.2821649 62.6538081,15.1820682 62.7563477,15.1088257 C62.8588872,15.0355831 62.9858391,14.9867555 63.137207,14.9623413 C63.288575,14.9379271 63.4765614,14.9257202 63.7011719,14.9257202 C63.9550794,14.9257202 64.1528313,14.9379271 64.2944336,14.9623413 C64.4360359,14.9867555 64.5410153,15.0453487 64.609375,15.1381226 C64.6777347,15.2308965 64.7192382,15.3651725 64.7338867,15.5409546 C64.7485352,15.7167367 64.7558594,15.9559921 64.7558594,16.258728 L64.7558594,17.5697632 C64.7558594,18.0824611 64.7656249,18.5878271 64.7851562,19.0858765 L64.9462891,19.0858765 C65.1416025,18.6952495 65.3613269,18.2582422 65.6054688,17.7748413 C65.8496106,17.2914405 66.1328109,16.8397848 66.4550781,16.4198608 C66.7773454,15.9999369 67.1435526,15.6459365 67.5537109,15.3578491 C67.9638692,15.0697617 68.4374973,14.9257202 68.9746094,14.9257202 C69.1601572,14.9257202 69.3408194,14.9574582 69.5166016,15.0209351 C69.6923837,15.0844119 69.8461907,15.1747431 69.9780273,15.2919312 C70.1098639,15.4091192 70.2148434,15.5531608 70.2929688,15.7240601 C70.3710941,15.8949594 70.4101562,16.0878285 70.4101562,16.3026733 C70.4101562,16.4686898 70.3857424,16.7006211 70.3369141,16.9984741 C70.2880857,17.2963272 70.2343753,17.608824 70.1757812,17.9359741 C70.1171872,18.2631242 70.0634768,18.5805038 70.0146484,18.8881226 C69.9658201,19.1957413 69.9414062,19.4520864 69.9414062,19.6571655 C69.9414062,20.0087298 69.9755856,20.3016956 70.0439453,20.5360718 C70.112305,20.7704479 70.2026362,20.9584344 70.3149414,21.1000366 C70.4272467,21.2416389 70.5541985,21.3417355 70.6958008,21.4003296 C70.8374031,21.4589236 70.9863273,21.4882202 71.1425781,21.4882202 C71.5820334,21.4882202 72.0361305,21.3905649 72.5048828,21.1952515 C72.8044717,21.0704228 73.4999664,20.8165511 74.0649088,20.585837 C74.4562744,20.3305474 74.7534228,20.2168952 74.9657977,20.1522827 C76.2617799,19.7579956 76.1409912,21.5037232 75.961792,21.9761353 C75.8163323,22.3596017 75.3623802,22.7633367 74.7357986,23.118201 Z M7.37792969,22.1034546 C7.72949395,22.1034546 8.11279089,22.0131235 8.52783203,21.8324585 C8.94287317,21.6517935 9.3286115,21.4198623 9.68505859,21.1366577 C10.0415057,20.8534532 10.3417957,20.5458391 10.5859375,20.2138062 C10.8300793,19.8817732 10.9521484,19.5595108 10.9521484,19.2470093 C10.9521484,18.807554 10.8715828,18.4462294 10.7104492,18.1630249 C10.5493156,17.8798204 10.3515637,17.7382202 10.1171875,17.7382202 C9.69726353,17.7382202 9.3383804,17.8163444 9.04052734,17.9725952 C8.74267429,18.128846 8.49365334,18.3314807 8.29345703,18.5805054 C8.09326072,18.8295301 7.93212952,19.1127303 7.81005859,19.4301147 C7.68798767,19.7474991 7.59521516,20.0673202 7.53173828,20.3895874 C7.4682614,20.7118546 7.42675791,21.0243515 7.40722656,21.3270874 C7.38769521,21.6298233 7.37792969,21.8886098 7.37792969,22.1034546 Z M41.1865234,18.265564 C40.8447249,18.265564 40.5029314,18.336364 40.1611328,18.4779663 C39.8193342,18.6195686 39.5019546,18.8392929 39.2089844,19.137146 C38.9160142,19.434999 38.6572277,19.8158546 38.4326172,20.2797241 C38.2080067,20.7435936 38.0419927,21.3026701 37.9345703,21.9569702 C37.8466792,22.4843166 37.7734378,22.9701516 37.7148438,23.4144897 C37.6562497,23.8588279 37.6074221,24.2518904 37.5683594,24.593689 C37.5292967,24.9843159 37.4951173,25.3505232 37.4658203,25.6923218 C37.7880875,25.7899785 38.11035,25.8729855 38.4326172,25.9413452 C38.7158217,25.9999393 39.0136703,26.0536497 39.3261719,26.102478 C39.6386734,26.1513064 39.936522,26.1757202 40.2197266,26.1757202 C40.5517595,26.1757202 40.8544908,26.0780649 41.1279297,25.8827515 C41.4013686,25.687438 41.6455067,25.4262101 41.8603516,25.0990601 C42.0751964,24.77191 42.2607414,24.3983786 42.4169922,23.9784546 C42.573243,23.5585306 42.7001948,23.1215233 42.7978516,22.6674194 C42.8955083,22.2133156 42.9687498,21.7641013 43.0175781,21.3197632 C43.0664065,20.875425 43.0908203,20.4677143 43.0908203,20.0966187 C43.0908203,19.8524768 43.0639651,19.6205455 43.0102539,19.4008179 C42.9565427,19.1810902 42.8588874,18.988221 42.7172852,18.8222046 C42.5756829,18.6561881 42.3803723,18.5219121 42.1313477,18.4193726 C41.882323,18.316833 41.5673847,18.265564 41.1865234,18.265564 Z M42.6220703,4.84759521 C42.6220703,4.80853252 42.6147462,4.72552554 42.6000977,4.59857178 C42.5854491,4.47161802 42.5512698,4.3397834 42.4975586,4.20306396 C42.4438474,4.06634453 42.3681646,3.94427544 42.2705078,3.83685303 C42.1728511,3.72943062 42.0410165,3.67572021 41.875,3.67572021 C41.6796865,3.67572021 41.4770518,3.81487898 41.2670898,4.09320068 C41.0571279,4.37152239 40.8496104,4.74749519 40.6445312,5.22113037 C40.4394521,5.69476555 40.2392588,6.24163508 40.0439453,6.86175537 C39.8486318,7.48187566 39.6582041,8.13128323 39.4726562,8.80999756 C39.2871084,9.48871189 39.1137703,10.1796229 38.9526367,10.8827515 C38.7915031,11.58588 38.6450202,12.2523772 38.5131836,12.8822632 C38.381347,13.5121491 38.2666021,14.0883153 38.1689453,14.6107788 C38.0712886,15.1332424 37.9931644,15.5556014 37.9345703,15.8778687 C38.1982435,15.3700536 38.4936507,14.8427151 38.8208008,14.2958374 C39.1479509,13.7489597 39.4775374,13.1801177 39.8095703,12.5892944 C40.1416032,11.9984712 40.466307,11.3930085 40.7836914,10.7728882 C41.1010758,10.1527679 41.3891589,9.51800862 41.6479492,8.86859131 C41.9067396,8.219174 42.1215812,7.5600009 42.2924805,6.89105225 C42.4633798,6.22210359 42.5732419,5.54095806 42.6220703,4.84759521 Z M52.0410156,22.1034546 C52.3925799,22.1034546 52.7758768,22.0131235 53.190918,21.8324585 C53.6059591,21.6517935 53.9916974,21.4198623 54.3481445,21.1366577 C54.7045916,20.8534532 55.0048816,20.5458391 55.2490234,20.2138062 C55.4931653,19.8817732 55.6152344,19.5595108 55.6152344,19.2470093 C55.6152344,18.807554 55.5346688,18.4462294 55.3735352,18.1630249 C55.2124015,17.8798204 55.0146496,17.7382202 54.7802734,17.7382202 C54.3603495,17.7382202 54.0014663,17.8163444 53.7036133,17.9725952 C53.4057602,18.128846 53.1567393,18.3314807 52.956543,18.5805054 C52.7563467,18.8295301 52.5952155,19.1127303 52.4731445,19.4301147 C52.3510736,19.7474991 52.2583011,20.0673202 52.1948242,20.3895874 C52.1313473,20.7118546 52.0898438,21.0243515 52.0703125,21.3270874 C52.0507812,21.6298233 52.0410156,21.8886098 52.0410156,22.1034546 Z" id="Path-1" sketch:type="MSShapeGroup"></path>
  </g>
</svg>