<?xml version="1.0" encoding="UTF-8"?>
<svg width="250px" height="250px" viewBox="0 0 250 250" version="1.1" xmlns="http://www.w3.org/2000/svg" xmlns:xlink="http://www.w3.org/1999/xlink" style="background: #000000;">
    <!-- Generator: Sketch 43 (38999) - http://www.bohemiancoding.com/sketch -->
    <title>logo-square-spacegray</title>
    <desc>Created with Sketch.</desc>
    <defs>
        <linearGradient x1="0%" y1="20.1172295%" x2="100%" y2="81.581551%" id="linearGradient-1">
            <stop stop-color="#FFFFFF" offset="0%"></stop>
            <stop stop-color="#9A9A9A" offset="100%"></stop>
        </linearGradient>
    </defs>
    <g id="logos" stroke="none" stroke-width="1" fill="none" fill-rule="evenodd">
        <g id="logo-square-spacegray" fill="url(#linearGradient-1)">
            <g id="logo" transform="translate(76.000000, 44.000000)">
                <path d="M25.2756493,46.6335137 L12.7670273,34.1248917 L26.9091629,19.9827561 L39.4177849,32.491378 L70.9264069,0.982756057 L85.0685425,15.1248917 L53.5599205,46.6335137 L97.619841,90.6934342 L97.4041123,90.9091629 L97.619841,91.1248917 L72.5599205,116.184812 L85.0685425,128.693434 L70.9264069,142.83557 L58.4177849,130.326948 L26.9091629,161.83557 L12.7670273,147.693434 L44.2756493,116.184812 L0.215728753,72.1248917 L0.431457505,71.9091629 L0.215728753,71.6934342 L25.2756493,46.6335137 Z M39.4177849,60.7756493 L28.2842712,71.9091629 L58.4177849,102.042677 L69.5512986,90.9091629 L39.4177849,60.7756493 Z" id="Combined-Shape"></path>
            </g>
        </g>
    </g>
</svg>